<svg width="25" height="25" viewBox="0 0 25 25" fill="none" xmlns="http://www.w3.org/2000/svg">
<path d="M7 8.33333C7.73638 8.33333 8.33333 7.73638 8.33333 7C8.33333 6.26362 7.73638 5.66667 7 5.66667C6.26362 5.66667 5.66667 6.26362 5.66667 7C5.66667 7.73638 6.26362 8.33333 7 8.33333Z" fill="black"/>
<path d="M7 8.33333C7.73638 8.33333 8.33333 7.73638 8.33333 7C8.33333 6.26362 7.73638 5.66667 7 5.66667C6.26362 5.66667 5.66667 6.26362 5.66667 7C5.66667 7.73638 6.26362 8.33333 7 8.33333Z" stroke="white" stroke-width="2" stroke-linecap="round" stroke-linejoin="round"/>
<path d="M1 5V10.1453C1 10.8613 1.284 11.548 1.79067 12.0547L12.612 22.876C12.8627 23.1268 13.1604 23.3257 13.488 23.4614C13.8156 23.5971 14.1667 23.667 14.5213 23.667C14.8759 23.667 15.2271 23.5971 15.5547 23.4614C15.8823 23.3257 16.1799 23.1268 16.4307 22.876L22.876 16.4307C23.1268 16.1799 23.3257 15.8823 23.4614 15.5547C23.5971 15.2271 23.667 14.8759 23.667 14.5213C23.667 14.1667 23.5971 13.8156 23.4614 13.488C23.3257 13.1604 23.1268 12.8627 22.876 12.612L12.0533 1.79067C11.5473 1.28466 10.861 1.00028 10.1453 1H5C3.93913 1 2.92172 1.42143 2.17157 2.17157C1.42143 2.92172 1 3.93913 1 5Z" stroke="white" stroke-width="2" stroke-linecap="round" stroke-linejoin="round"/>
</svg>
