<svg width="24" height="26" viewBox="0 0 24 26" fill="none" xmlns="http://www.w3.org/2000/svg">
<path d="M3.66667 19.6667C4.37391 19.6667 5.05219 19.9476 5.55229 20.4477C6.05238 20.9478 6.33333 21.6261 6.33333 22.3333C6.33333 23.0406 6.05238 23.7189 5.55229 24.219C5.05219 24.719 4.37391 25 3.66667 25C2.95942 25 2.28115 24.719 1.78105 24.219C1.28095 23.7189 1 23.0406 1 22.3333C1 21.6261 1.28095 20.9478 1.78105 20.4477C2.28115 19.9476 2.95942 19.6667 3.66667 19.6667ZM3.66667 19.6667H18.3333M3.66667 19.6667V1H1M18.3333 19.6667C19.0406 19.6667 19.7189 19.9476 20.219 20.4477C20.719 20.9478 21 21.6261 21 22.3333C21 23.0406 20.719 23.7189 20.219 24.219C19.7189 24.719 19.0406 25 18.3333 25C17.6261 25 16.9478 24.719 16.4477 24.219C15.9476 23.7189 15.6667 23.0406 15.6667 22.3333C15.6667 21.6261 15.9476 20.9478 16.4477 20.4477C16.9478 19.9476 17.6261 19.6667 18.3333 19.6667ZM22.3333 5L21 14.3333H3.66667M9 10.3333L17 2.33333M9 3C9 3.17681 9.07024 3.34638 9.19526 3.4714C9.32029 3.59643 9.48986 3.66667 9.66667 3.66667C9.84348 3.66667 10.013 3.59643 10.1381 3.4714C10.2631 3.34638 10.3333 3.17681 10.3333 3C10.3333 2.82319 10.2631 2.65362 10.1381 2.5286C10.013 2.40357 9.84348 2.33333 9.66667 2.33333C9.48986 2.33333 9.32029 2.40357 9.19526 2.5286C9.07024 2.65362 9 2.82319 9 3ZM15.6667 9.66667C15.6667 9.84348 15.7369 10.013 15.8619 10.1381C15.987 10.2631 16.1565 10.3333 16.3333 10.3333C16.5101 10.3333 16.6797 10.2631 16.8047 10.1381C16.9298 10.013 17 9.84348 17 9.66667C17 9.48986 16.9298 9.32029 16.8047 9.19526C16.6797 9.07024 16.5101 9 16.3333 9C16.1565 9 15.987 9.07024 15.8619 9.19526C15.7369 9.32029 15.6667 9.48986 15.6667 9.66667Z" stroke="white" stroke-width="2" stroke-linecap="round" stroke-linejoin="round"/>
</svg>
