<svg width="26" height="21" viewBox="0 0 26 21" fill="none" xmlns="http://www.w3.org/2000/svg">
<path d="M1 7.66667H25M6.33333 14.3333H6.34667M11.6667 14.3333H14.3333M1 5C1 3.93913 1.42143 2.92172 2.17157 2.17157C2.92172 1.42143 3.93913 1 5 1H21C22.0609 1 23.0783 1.42143 23.8284 2.17157C24.5786 2.92172 25 3.93913 25 5V15.6667C25 16.7275 24.5786 17.7449 23.8284 18.4951C23.0783 19.2452 22.0609 19.6667 21 19.6667H5C3.93913 19.6667 2.92172 19.2452 2.17157 18.4951C1.42143 17.7449 1 16.7275 1 15.6667V5Z" stroke="white" stroke-width="2" stroke-linecap="round" stroke-linejoin="round"/>
</svg>
