<svg width="26" height="26" viewBox="0 0 26 26" fill="none" xmlns="http://www.w3.org/2000/svg">
<path d="M8.98503 12.985L11.6517 15.6517L16.985 10.3183M3.65166 6.58499C3.65166 5.80702 3.9607 5.06092 4.51081 4.51081C5.06092 3.9607 5.80702 3.65166 6.58499 3.65166H7.91832C8.69285 3.65121 9.43578 3.34446 9.98499 2.79832L10.9183 1.86499C11.1909 1.59086 11.515 1.37331 11.872 1.22487C12.2289 1.07642 12.6117 1 12.9983 1C13.3849 1 13.7677 1.07642 14.1247 1.22487C14.4816 1.37331 14.8057 1.59086 15.0783 1.86499L16.0117 2.79832C16.561 3.34499 17.305 3.65166 18.0783 3.65166H19.4117C20.1896 3.65166 20.9357 3.9607 21.4858 4.51081C22.0359 5.06092 22.345 5.80702 22.345 6.58499V7.91832C22.345 8.69166 22.6517 9.43566 23.1983 9.98499L24.1317 10.9183C24.4058 11.1909 24.6233 11.515 24.7718 11.872C24.9202 12.2289 24.9966 12.6117 24.9966 12.9983C24.9966 13.3849 24.9202 13.7677 24.7718 14.1247C24.6233 14.4816 24.4058 14.8057 24.1317 15.0783L23.1983 16.0117C22.6522 16.5609 22.3454 17.3038 22.345 18.0783V19.4117C22.345 20.1896 22.0359 20.9357 21.4858 21.4858C20.9357 22.0359 20.1896 22.345 19.4117 22.345H18.0783C17.3038 22.3454 16.5609 22.6522 16.0117 23.1983L15.0783 24.1317C14.8057 24.4058 14.4816 24.6233 14.1247 24.7718C13.7677 24.9202 13.3849 24.9966 12.9983 24.9966C12.6117 24.9966 12.2289 24.9202 11.872 24.7718C11.515 24.6233 11.1909 24.4058 10.9183 24.1317L9.98499 23.1983C9.43578 22.6522 8.69285 22.3454 7.91832 22.345H6.58499C5.80702 22.345 5.06092 22.0359 4.51081 21.4858C3.9607 20.9357 3.65166 20.1896 3.65166 19.4117V18.0783C3.65121 17.3038 3.34446 16.5609 2.79832 16.0117L1.86499 15.0783C1.59086 14.8057 1.37331 14.4816 1.22487 14.1247C1.07642 13.7677 1 13.3849 1 12.9983C1 12.6117 1.07642 12.2289 1.22487 11.872C1.37331 11.515 1.59086 11.1909 1.86499 10.9183L2.79832 9.98499C3.34446 9.43578 3.65121 8.69285 3.65166 7.91832V6.58499Z" stroke="white" stroke-width="2" stroke-linecap="round" stroke-linejoin="round"/>
</svg>
