<svg width="26" height="26" viewBox="0 0 26 26" fill="none" xmlns="http://www.w3.org/2000/svg">
<path d="M16.7333 9C16.4918 8.58102 16.1409 8.2356 15.7181 8.00074C15.2954 7.76587 14.8167 7.65039 14.3333 7.66667H11.6667C10.9594 7.66667 10.2811 7.94762 9.78105 8.44772C9.28095 8.94781 9 9.62609 9 10.3333C9 11.0406 9.28095 11.7189 9.78105 12.219C10.2811 12.719 10.9594 13 11.6667 13H14.3333C15.0406 13 15.7189 13.281 16.219 13.781C16.719 14.2811 17 14.9594 17 15.6667C17 16.3739 16.719 17.0522 16.219 17.5523C15.7189 18.0524 15.0406 18.3333 14.3333 18.3333H11.6667C11.1833 18.3496 10.7047 18.2341 10.2819 17.9993C9.85913 17.7644 9.5082 17.419 9.26667 17M13 6.33333V19.6667M1 13C1 14.5759 1.31039 16.1363 1.91345 17.5922C2.5165 19.0481 3.40042 20.371 4.51472 21.4853C5.62902 22.5996 6.95189 23.4835 8.4078 24.0866C9.86371 24.6896 11.4241 25 13 25C14.5759 25 16.1363 24.6896 17.5922 24.0866C19.0481 23.4835 20.371 22.5996 21.4853 21.4853C22.5996 20.371 23.4835 19.0481 24.0866 17.5922C24.6896 16.1363 25 14.5759 25 13C25 11.4241 24.6896 9.86371 24.0866 8.4078C23.4835 6.95189 22.5996 5.62902 21.4853 4.51472C20.371 3.40042 19.0481 2.5165 17.5922 1.91345C16.1363 1.31039 14.5759 1 13 1C11.4241 1 9.86371 1.31039 8.4078 1.91345C6.95189 2.5165 5.62902 3.40042 4.51472 4.51472C3.40042 5.62902 2.5165 6.95189 1.91345 8.4078C1.31039 9.86371 1 11.4241 1 13Z" stroke="white" stroke-width="2" stroke-linecap="round" stroke-linejoin="round"/>
</svg>
