<svg width="25" height="26" viewBox="0 0 25 26" fill="none" xmlns="http://www.w3.org/2000/svg">
<path d="M12.464 17C10.3423 17 8.30747 16.1571 6.80718 14.6569C5.30688 13.1566 4.46403 11.1217 4.46403 9C4.46403 6.87827 5.30688 4.84344 6.80718 3.34315C8.30747 1.84286 10.3423 1 12.464 1C14.5858 1 16.6206 1.84286 18.1209 3.34315C19.6212 4.84344 20.464 6.87827 20.464 9C20.464 11.1217 19.6212 13.1566 18.1209 14.6569C16.6206 16.1571 14.5858 17 12.464 17ZM12.464 17L16.9974 24.8533L19.128 20.5427L23.9254 20.852L19.392 13M5.53333 13L1 20.8533L5.79733 20.5427L7.928 24.852L12.4613 17" stroke="white" stroke-width="2" stroke-linecap="round" stroke-linejoin="round"/>
</svg>
