<svg width="47" height="47" viewBox="0 0 47 47" fill="none" xmlns="http://www.w3.org/2000/svg">
    <path d="M42.6391 0H4.36085C1.95242 0 0 1.95242 0 4.36085V42.6391C0 45.0476 1.95242 47 4.36085 47H42.6391C45.0476 47 47 45.0476 47 42.6391V4.36085C47 1.95242 45.0476 0 42.6391 0Z"
          fill="url(#paint0_linear_10_4)"/>
    <path d="M35.8137 30.3533C34.9002 31.7919 33.4573 33.5525 31.6436 33.9894C28.4665 34.7572 23.5904 34.0159 17.523 28.3588L17.4479 28.2926C12.113 23.3459 10.7274 19.2289 11.0628 15.9635C11.2481 14.1101 12.7925 12.4333 14.0943 11.3389C14.3001 11.1633 14.5441 11.0382 14.8069 10.9738C15.0697 10.9093 15.3439 10.9072 15.6076 10.9677C15.8714 11.0281 16.1173 11.1495 16.3257 11.322C16.5342 11.4945 16.6994 11.7134 16.8081 11.9611L18.7718 16.3738C18.8994 16.66 18.9467 16.9754 18.9086 17.2864C18.8705 17.5973 18.7484 17.8921 18.5555 18.1389L17.5627 19.4274C17.3496 19.6935 17.2211 20.0172 17.1936 20.3569C17.166 20.6967 17.2408 21.0369 17.4082 21.3337C17.9642 22.3089 19.2969 23.7431 20.7751 25.0713C22.4343 26.5716 24.2744 27.944 25.4394 28.4117C25.7511 28.5391 26.0938 28.5701 26.4233 28.5009C26.7529 28.4317 27.0541 28.2654 27.2883 28.0234L28.44 26.8629C28.6622 26.6437 28.9386 26.4874 29.2409 26.4099C29.5432 26.3324 29.8607 26.3364 30.161 26.4216L34.8252 27.7454C35.0825 27.8243 35.3183 27.961 35.5147 28.1451C35.711 28.3291 35.8627 28.5557 35.9581 28.8073C36.0535 29.059 36.09 29.3291 36.065 29.597C36.04 29.865 35.954 30.1237 35.8137 30.3533Z"
          fill="white"/>
    <defs>
        <linearGradient id="paint0_linear_10_4" x1="23.5" y1="0.192273" x2="23.5" y2="44.7248"
                        gradientUnits="userSpaceOnUse">
            <stop stop-color="#347EA8"/>
            <stop offset="1" stop-color="#215573"/>
        </linearGradient>
    </defs>
</svg>
