<svg width="47" height="47" viewBox="0 0 47 47" fill="none" xmlns="http://www.w3.org/2000/svg">
    <path d="M42.6391 0H4.36085C1.95242 0 0 1.95242 0 4.36085V42.6391C0 45.0476 1.95242 47 4.36085 47H42.6391C45.0476 47 47 45.0476 47 42.6391V4.36085C47 1.95242 45.0476 0 42.6391 0Z"
          fill="url(#paint0_linear_10_13)"/>
    <path d="M33.8614 13.1389C31.4164 10.6695 28.1695 9.15512 24.7063 8.86888C21.2431 8.58264 17.7916 9.54339 14.9743 11.5778C12.1571 13.6123 10.1596 16.5865 9.34219 19.964C8.52473 23.3415 8.94113 26.8999 10.5163 29.9975L8.97007 37.5041C8.95403 37.5788 8.95357 37.656 8.96874 37.7309C8.9839 37.8058 9.01436 37.8768 9.0582 37.9394C9.12242 38.0344 9.2141 38.1075 9.32098 38.149C9.42787 38.1905 9.54488 38.1985 9.65638 38.1717L17.0135 36.4279C20.1023 37.9632 23.6356 38.3528 26.9847 37.5274C30.3339 36.7021 33.2815 34.7153 35.3033 31.9206C37.3251 29.1259 38.2897 25.7046 38.0257 22.2654C37.7617 18.8262 36.286 15.5922 33.8614 13.1389ZM31.5675 31.4475C29.8758 33.1344 27.6974 34.248 25.3393 34.6313C22.9812 35.0145 20.5623 34.6482 18.4235 33.5839L17.398 33.0765L12.8876 34.1447L12.901 34.0886L13.8356 29.5488L13.3336 28.5581C12.2407 26.4118 11.8552 23.9746 12.2323 21.5958C12.6093 19.2169 13.7296 17.0185 15.4326 15.3153C17.5724 13.1761 20.4743 11.9744 23.5 11.9744C26.5258 11.9744 29.4276 13.1761 31.5675 15.3153C31.5857 15.3362 31.6053 15.3558 31.6262 15.374C33.7395 17.5187 34.9193 20.4119 34.9083 23.4229C34.8973 26.4338 33.6964 29.3183 31.5675 31.4475Z"
          fill="white"/>
    <path d="M31.1669 28.1176C30.6141 28.9881 29.7409 30.0537 28.6433 30.318C26.7206 30.7827 23.7697 30.3341 20.0979 26.9105L20.0525 26.8705C16.8239 23.8769 15.9854 21.3854 16.1883 19.4092C16.3005 18.2876 17.2351 17.2729 18.0229 16.6106C18.1475 16.5043 18.2952 16.4286 18.4542 16.3896C18.6132 16.3506 18.7792 16.3493 18.9388 16.3859C19.0984 16.4225 19.2472 16.4959 19.3733 16.6003C19.4995 16.7047 19.5994 16.8372 19.6652 16.9871L20.8536 19.6576C20.9308 19.8307 20.9594 20.0216 20.9364 20.2098C20.9133 20.398 20.8395 20.5764 20.7227 20.7258L20.1219 21.5055C19.993 21.6665 19.9152 21.8624 19.8985 22.068C19.8819 22.2736 19.9271 22.4795 20.0284 22.6592C20.3649 23.2493 21.1714 24.1172 22.066 24.921C23.0701 25.829 24.1837 26.6595 24.8887 26.9426C25.0773 27.0196 25.2847 27.0385 25.4841 26.9966C25.6836 26.9547 25.8659 26.854 26.0076 26.7076L26.7046 26.0052C26.839 25.8726 27.0063 25.7781 27.1893 25.7311C27.3722 25.6842 27.5643 25.6867 27.746 25.7382L30.5687 26.5393C30.7244 26.5871 30.8671 26.6698 30.986 26.7812C31.1048 26.8926 31.1966 27.0297 31.2543 27.182C31.312 27.3343 31.3341 27.4977 31.319 27.6599C31.3038 27.8221 31.2518 27.9786 31.1669 28.1176Z"
          fill="white"/>
    <defs>
        <linearGradient id="paint0_linear_10_13" x1="23.5" y1="0.192273" x2="23.5" y2="44.7248"
                        gradientUnits="userSpaceOnUse">
            <stop stop-color="#35DB23"/>
            <stop offset="1" stop-color="#27A11A"/>
        </linearGradient>
    </defs>
</svg>
